<svg xmlns="http://www.w3.org/2000/svg" version="1.1" xmlns:xlink="http://www.w3.org/1999/xlink" xmlns:svgjs="http://svgjs.dev/svgjs" viewBox="0 0 800 800" preserveAspectRatio="xMidYMid slice"><defs><pattern id="pppixelate-pattern" width="20" height="20" patternUnits="userSpaceOnUse" patternTransform="translate(6 95) scale(40) rotate(0)" shape-rendering="crispEdges">
    <rect width="1" height="1" x="9" y="2" fill="hsla(70, 25%, 25%, 1.00)"></rect><rect width="1" height="1" x="10" y="2" fill="hsla(70, 25%, 25%, 1.00)"></rect><rect width="1" height="1" x="8" y="3" fill="hsla(70, 16%, 36%, 1.00)"></rect><rect width="1" height="1" x="9" y="3" fill="hsla(70, 37%, 45%, 1.00)"></rect><rect width="1" height="1" x="10" y="3" fill="hsla(70, 37%, 45%, 1.00)"></rect><rect width="1" height="1" x="11" y="3" fill="hsla(70, 16%, 36%, 1.00)"></rect><rect width="1" height="1" x="7" y="4" fill="hsla(70, 7%, 49%, 1.00)"></rect><rect width="1" height="1" x="8" y="4" fill="hsla(70, 37%, 45%, 1.00)"></rect><rect width="1" height="1" x="9" y="4" fill="hsla(70, 37%, 45%, 1.00)"></rect><rect width="1" height="1" x="10" y="4" fill="hsla(70, 37%, 45%, 1.00)"></rect><rect width="1" height="1" x="11" y="4" fill="hsla(70, 37%, 45%, 1.00)"></rect><rect width="1" height="1" x="12" y="4" fill="hsla(70, 7%, 49%, 1.00)"></rect><rect width="1" height="1" x="6" y="5" fill="hsla(70, 25%, 25%, 1.00)"></rect><rect width="1" height="1" x="7" y="5" fill="hsla(70, 16%, 36%, 1.00)"></rect><rect width="1" height="1" x="8" y="5" fill="hsla(70, 7%, 49%, 1.00)"></rect><rect width="1" height="1" x="9" y="5" fill="hsla(70, 7%, 49%, 1.00)"></rect><rect width="1" height="1" x="10" y="5" fill="hsla(70, 7%, 49%, 1.00)"></rect><rect width="1" height="1" x="11" y="5" fill="hsla(70, 7%, 49%, 1.00)"></rect><rect width="1" height="1" x="12" y="5" fill="hsla(70, 16%, 36%, 1.00)"></rect><rect width="1" height="1" x="13" y="5" fill="hsla(70, 25%, 25%, 1.00)"></rect><rect width="1" height="1" x="5" y="6" fill="hsla(70, 25%, 25%, 1.00)"></rect><rect width="1" height="1" x="6" y="6" fill="hsla(70, 25%, 25%, 1.00)"></rect><rect width="1" height="1" x="7" y="6" fill="hsla(70, 25%, 25%, 1.00)"></rect><rect width="1" height="1" x="8" y="6" fill="hsla(70, 25%, 25%, 1.00)"></rect><rect width="1" height="1" x="9" y="6" fill="hsla(70, 25%, 25%, 1.00)"></rect><rect width="1" height="1" x="10" y="6" fill="hsla(70, 25%, 25%, 1.00)"></rect><rect width="1" height="1" x="11" y="6" fill="hsla(70, 25%, 25%, 1.00)"></rect><rect width="1" height="1" x="12" y="6" fill="hsla(70, 25%, 25%, 1.00)"></rect><rect width="1" height="1" x="13" y="6" fill="hsla(70, 25%, 25%, 1.00)"></rect><rect width="1" height="1" x="14" y="6" fill="hsla(70, 25%, 25%, 1.00)"></rect><rect width="1" height="1" x="4" y="7" fill="hsla(70, 25%, 25%, 1.00)"></rect><rect width="1" height="1" x="5" y="7" fill="hsla(70, 25%, 25%, 1.00)"></rect><rect width="1" height="1" x="6" y="7" fill="hsla(70, 25%, 25%, 1.00)"></rect><rect width="1" height="1" x="7" y="7" fill="hsla(70, 25%, 25%, 1.00)"></rect><rect width="1" height="1" x="8" y="7" fill="hsla(70, 25%, 25%, 1.00)"></rect><rect width="1" height="1" x="9" y="7" fill="hsla(70, 25%, 25%, 1.00)"></rect><rect width="1" height="1" x="10" y="7" fill="hsla(70, 25%, 25%, 1.00)"></rect><rect width="1" height="1" x="11" y="7" fill="hsla(70, 25%, 25%, 1.00)"></rect><rect width="1" height="1" x="12" y="7" fill="hsla(70, 25%, 25%, 1.00)"></rect><rect width="1" height="1" x="13" y="7" fill="hsla(70, 25%, 25%, 1.00)"></rect><rect width="1" height="1" x="14" y="7" fill="hsla(70, 25%, 25%, 1.00)"></rect><rect width="1" height="1" x="15" y="7" fill="hsla(70, 25%, 25%, 1.00)"></rect><rect width="1" height="1" x="6" y="8" fill="hsl(0, 0%, 60%)"></rect><rect width="1" height="1" x="7" y="8" fill="hsla(10, 72%, 32%, 1.00)"></rect><rect width="1" height="1" x="8" y="8" fill="hsl(190, 100%, 70%)"></rect><rect width="1" height="1" x="9" y="8" fill="hsla(10, 72%, 32%, 1.00)"></rect><rect width="1" height="1" x="13" y="8" fill="hsl(0, 0%, 60%)"></rect><rect width="1" height="1" x="6" y="9" fill="hsl(0, 0%, 60%)"></rect><rect width="1" height="1" x="7" y="9" fill="hsla(10, 72%, 32%, 1.00)"></rect><rect width="1" height="1" x="8" y="9" fill="hsla(10, 72%, 32%, 1.00)"></rect><rect width="1" height="1" x="9" y="9" fill="hsla(10, 72%, 32%, 1.00)"></rect><rect width="1" height="1" x="12" y="9" fill="hsla(10, 72%, 32%, 1.00)"></rect><rect width="1" height="1" x="13" y="9" fill="hsl(0, 0%, 60%)"></rect><rect width="1" height="1" x="6" y="10" fill="hsl(0, 0%, 60%)"></rect><rect width="1" height="1" x="7" y="10" fill="hsla(10, 72%, 32%, 1.00)"></rect><rect width="1" height="1" x="8" y="10" fill="hsla(10, 72%, 32%, 1.00)"></rect><rect width="1" height="1" x="9" y="10" fill="hsla(10, 72%, 32%, 1.00)"></rect><rect width="1" height="1" x="10" y="10" fill="hsl(205, 69%, 50%)"></rect><rect width="1" height="1" x="11" y="10" fill="hsl(205, 69%, 50%)"></rect><rect width="1" height="1" x="12" y="10" fill="hsl(0, 0%, 75%)"></rect><rect width="1" height="1" x="13" y="10" fill="hsl(0, 0%, 60%)"></rect><rect width="1" height="1" x="6" y="11" fill="hsl(0, 0%, 60%)"></rect><rect width="1" height="1" x="7" y="11" fill="hsla(10, 72%, 32%, 1.00)"></rect><rect width="1" height="1" x="8" y="11" fill="hsla(10, 72%, 32%, 1.00)"></rect><rect width="1" height="1" x="9" y="11" fill="hsla(10, 72%, 32%, 1.00)"></rect><rect width="1" height="1" x="10" y="11" fill="hsl(205, 69%, 50%)"></rect><rect width="1" height="1" x="11" y="11" fill="hsl(205, 69%, 50%)"></rect><rect width="1" height="1" x="12" y="11" fill="hsl(0, 0%, 75%)"></rect><rect width="1" height="1" x="13" y="11" fill="hsl(0, 0%, 60%)"></rect><rect width="1" height="1" x="6" y="12" fill="hsl(0, 0%, 60%)"></rect><rect width="1" height="1" x="7" y="12" fill="hsl(0, 0%, 60%)"></rect><rect width="1" height="1" x="8" y="12" fill="hsl(0, 0%, 60%)"></rect><rect width="1" height="1" x="9" y="12" fill="hsl(0, 0%, 60%)"></rect><rect width="1" height="1" x="10" y="12" fill="hsl(205, 69%, 50%)"></rect><rect width="1" height="1" x="11" y="12" fill="hsl(205, 69%, 50%)"></rect><rect width="1" height="1" x="12" y="12" fill="hsl(0, 0%, 60%)"></rect><rect width="1" height="1" x="13" y="12" fill="hsl(0, 0%, 60%)"></rect>
  </pattern></defs><rect width="100%" height="100%" fill="url(#pppixelate-pattern)"></rect></svg>